 <svg xmlns="http://www.w3.org/2000/svg" width="46px" height="46px" viewBox="0 0 46 46">
    <path fill="#AFAFAF" d="M31.8,15.9c0,0.9-0.7,1.7-1.7,1.7s-1.7-0.7-1.7-1.7s0.7-1.7,1.7-1.7S31.8,15,31.8,15.9z M15.9,14.2
        c-0.9,0-1.7,0.7-1.7,1.7s0.7,1.7,1.7,1.7s1.7-0.7,1.7-1.7S16.8,14.2,15.9,14.2z M44.3,14.2c-0.9,0-1.7,0.7-1.7,1.7s0.7,1.7,1.7,1.7
        s1.7-0.7,1.7-1.7S45.3,14.2,44.3,14.2z M1.7,14.2C0.7,14.2,0,15,0,15.9s0.7,1.7,1.7,1.7s1.7-0.7,1.7-1.7S2.6,14.2,1.7,14.2z
        M30.1,28.5c-0.9,0-1.7,0.7-1.7,1.7s0.7,1.7,1.7,1.7s1.7-0.7,1.7-1.7S31,28.5,30.1,28.5z M15.9,28.5c-0.9,0-1.7,0.7-1.7,1.7
        s0.7,1.7,1.7,1.7s1.7-0.7,1.7-1.7S16.8,28.5,15.9,28.5z M44.3,28.5c-0.9,0-1.7,0.7-1.7,1.7s0.7,1.7,1.7,1.7S46,31,46,30.1
        S45.3,28.5,44.3,28.5z M1.7,28.5c-0.9,0-1.7,0.7-1.7,1.7s0.7,1.7,1.7,1.7s1.7-0.7,1.7-1.7S2.6,28.5,1.7,28.5z M30.1,0
        c-0.9,0-1.7,0.7-1.7,1.7s0.7,1.7,1.7,1.7s1.7-0.7,1.7-1.7S31,0,30.1,0z M15.9,0c-0.9,0-1.7,0.7-1.7,1.7s0.7,1.7,1.7,1.7
        s1.7-0.7,1.7-1.7S16.8,0,15.9,0z M44.3,0c-0.9,0-1.7,0.7-1.7,1.7s0.7,1.7,1.7,1.7S46,2.6,46,1.7S45.3,0,44.3,0z M1.7,0
        C0.7,0,0,0.7,0,1.7s0.7,1.7,1.7,1.7s1.7-0.7,1.7-1.7S2.6,0,1.7,0z M30.1,42.7c-0.9,0-1.7,0.7-1.7,1.7s0.7,1.7,1.7,1.7
        s1.7-0.7,1.7-1.7S31,42.7,30.1,42.7z M15.9,42.7c-0.9,0-1.7,0.7-1.7,1.7S15,46,15.9,46s1.7-0.7,1.7-1.7S16.8,42.7,15.9,42.7z
        M44.3,42.7c-0.9,0-1.7,0.7-1.7,1.7s0.7,1.7,1.7,1.7s1.7-0.7,1.7-1.7S45.3,42.7,44.3,42.7z M1.7,42.7c-0.9,0-1.7,0.7-1.7,1.7
        S0.7,46,1.7,46s1.7-0.7,1.7-1.7S2.6,42.7,1.7,42.7z"
    /> 
</svg>